HIERARCHY
ROOT Hips
{
	OFFSET 0.000000 89.005402 0.000000
	CHANNELS 6 Xposition Yposition Zposition Xrotation Yrotation Zrotation
	JOINT Spine
	{
		OFFSET 0.116900 10.681000 0.373400
		CHANNELS 3 Xrotation Yrotation Zrotation
		JOINT Spine1
		{
			OFFSET 0.000000 13.840401 0.053500
			CHANNELS 3 Xrotation Yrotation Zrotation
			JOINT Spine2
			{
				OFFSET 0.000000 14.712700 -0.366200
				CHANNELS 3 Xrotation Yrotation Zrotation
				JOINT Neck
				{
					OFFSET 0.000000 35.415497 -3.314200
					CHANNELS 3 Xrotation Yrotation Zrotation
					JOINT Head
					{
						OFFSET 0.000000 16.899200 1.218300
						CHANNELS 3 Xrotation Yrotation Zrotation
						JOINT HeadTop_End
						{
							OFFSET 0.000000 22.206207 2.192500
							CHANNELS 3 Xrotation Yrotation Zrotation
							End Site
							{
								OFFSET 0.000000 22.314178 0.000000
							}
						}
					}
				}
				JOINT LeftShoulder
				{
					OFFSET 12.896400 26.716293 -4.548400
					CHANNELS 3 Xrotation Yrotation Zrotation
					JOINT LeftArm
					{
						OFFSET 19.027000 -4.857010 -1.718400
						CHANNELS 3 Xrotation Yrotation Zrotation
						JOINT LeftForeArm
						{
							OFFSET 24.179897 0.000000 0.000000
							CHANNELS 3 Xrotation Yrotation Zrotation
							JOINT LeftHand
							{
								OFFSET 27.156403 0.000000 0.000000
								CHANNELS 3 Xrotation Yrotation Zrotation
								JOINT LeftHandIndex1
								{
									OFFSET 16.441200 0.000000 0.000000
									CHANNELS 3 Xrotation Yrotation Zrotation
									JOINT LeftHandIndex2
									{
										OFFSET 4.821899 0.000000 0.000000
										CHANNELS 3 Xrotation Yrotation Zrotation
										JOINT LeftHandIndex3
										{
											OFFSET 6.386497 0.000000 0.000000
											CHANNELS 3 Xrotation Yrotation Zrotation
											JOINT LeftHandIndex4
											{
												OFFSET 5.188988 0.000000 0.000000
												CHANNELS 3 Xrotation Yrotation Zrotation
												End Site
												{
													OFFSET -0.178703 5.185913 0.000177
												}
											}
										}
									}
								}
								JOINT LeftHandThumb1
								{
									OFFSET 6.534897 -5.032593 5.900300
									CHANNELS 3 Xrotation Yrotation Zrotation
									JOINT LeftHandThumb2
									{
										OFFSET 3.818176 -2.204422 2.204423
										CHANNELS 3 Xrotation Yrotation Zrotation
										JOINT LeftHandThumb3
										{
											OFFSET 3.252098 -1.877594 1.877601
											CHANNELS 3 Xrotation Yrotation Zrotation
											JOINT LeftHandThumb4
											{
												OFFSET 5.251778 -3.032120 3.032117
												CHANNELS 3 Xrotation Yrotation Zrotation
												End Site
												{
													OFFSET 0.000023 6.780014 0.000000
												}
											}
										}
									}
								}
							}
						}
					}
				}
				JOINT RightShoulder
				{
					OFFSET -12.896300 26.716293 -4.548400
					CHANNELS 3 Xrotation Yrotation Zrotation
					JOINT RightArm
					{
						OFFSET -19.027000 -4.857010 -1.718400
						CHANNELS 3 Xrotation Yrotation Zrotation
						JOINT RightForeArm
						{
							OFFSET -24.179897 0.000000 0.000000
							CHANNELS 3 Xrotation Yrotation Zrotation
							JOINT RightHand
							{
								OFFSET -27.156403 0.000000 0.000000
								CHANNELS 3 Xrotation Yrotation Zrotation
								JOINT RightHandThumb1
								{
									OFFSET -6.591202 -4.852203 5.988100
									CHANNELS 3 Xrotation Yrotation Zrotation
									JOINT RightHandThumb2
									{
										OFFSET -3.818176 -2.204422 2.204423
										CHANNELS 3 Xrotation Yrotation Zrotation
										JOINT RightHandThumb3
										{
											OFFSET -3.252098 -1.877594 1.877601
											CHANNELS 3 Xrotation Yrotation Zrotation
											JOINT RightHandThumb4
											{
												OFFSET -5.251778 -3.032120 3.032117
												CHANNELS 3 Xrotation Yrotation Zrotation
												End Site
												{
													OFFSET -0.000023 6.780014 0.000000
												}
											}
										}
									}
								}
								JOINT RightHandIndex1
								{
									OFFSET -16.029404 0.000000 0.000000
									CHANNELS 3 Xrotation Yrotation Zrotation
									JOINT RightHandIndex2
									{
										OFFSET -5.213303 0.000000 0.000000
										CHANNELS 3 Xrotation Yrotation Zrotation
										JOINT RightHandIndex3
										{
											OFFSET -6.386528 0.000000 0.000000
											CHANNELS 3 Xrotation Yrotation Zrotation
											JOINT RightHandIndex4
											{
												OFFSET -5.189026 0.000000 0.000000
												CHANNELS 3 Xrotation Yrotation Zrotation
												End Site
												{
													OFFSET 0.236702 5.183624 0.001972
												}
											}
										}
									}
								}
							}
						}
					}
				}
			}
		}
	}
	JOINT LeftUpLeg
	{
		OFFSET 14.073000 -7.904099 -1.463000
		CHANNELS 3 Xrotation Yrotation Zrotation
		JOINT LeftLeg
		{
			OFFSET -0.109806 -34.073280 4.093200
			CHANNELS 3 Xrotation Yrotation Zrotation
			JOINT LeftFoot
			{
				OFFSET 0.109806 -29.899420 -6.319000
				CHANNELS 3 Xrotation Yrotation Zrotation
				JOINT LeftToeBase
				{
					OFFSET 1.551100 -14.988700 20.535801
					CHANNELS 3 Xrotation Yrotation Zrotation
					JOINT LeftToe_End
					{
						OFFSET 0.221200 0.570800 13.248301
						CHANNELS 3 Xrotation Yrotation Zrotation
						End Site
						{
							OFFSET 0.000000 13.262435 0.000000
						}
					}
				}
			}
		}
	}
	JOINT RightUpLeg
	{
		OFFSET -13.839300 -7.904099 -1.463000
		CHANNELS 3 Xrotation Yrotation Zrotation
		JOINT RightLeg
		{
			OFFSET 0.109694 -34.073219 4.093300
			CHANNELS 3 Xrotation Yrotation Zrotation
			JOINT RightFoot
			{
				OFFSET -0.109694 -29.899384 -6.319200
				CHANNELS 3 Xrotation Yrotation Zrotation
				JOINT RightToeBase
				{
					OFFSET -1.551100 -14.988700 20.535801
					CHANNELS 3 Xrotation Yrotation Zrotation
					JOINT RightToe_End
					{
						OFFSET -0.221200 0.570900 13.248299
						CHANNELS 3 Xrotation Yrotation Zrotation
						End Site
						{
							OFFSET 0.000000 13.262440 0.000000
						}
					}
				}
			}
		}
	}
}
MOTION
Frames: 9
Frame Time: 0.033333
-0.963598 63.103935 1.760736 16.986969 16.660194 2.123265 11.011032 -14.993566 9.330604 2.869506 -4.087947 0.126406 2.861625 -4.312287 0.311445 -0.688869 2.356466 -4.369683 -6.951122 9.322000 -11.106344 0.000002 -0.000000 0.000000 2.870352 -11.957094 6.152314 -33.803692 -70.877563 -6.927837 -0.000089 -94.709555 -0.000074 15.904403 -20.838180 11.426090 0.614962 5.226343 -14.494954 0.212946 1.566684 -15.479603 0.212813 1.566224 -15.474956 0.000001 0.000004 0.000007 -14.376404 -24.771361 -3.355227 9.920180 43.708891 4.996014 -9.012749 -8.993954 12.231288 0.000003 0.000002 -0.000003 1.124708 1.331172 15.116532 -9.590812 -31.513205 40.008403 0.000000 10.721302 0.000011 16.783627 19.030292 -20.612611 -6.394893 8.753168 -2.624472 8.202798 -29.443036 -1.711520 -7.568539 8.340464 -10.032334 -0.000000 0.000001 -0.000001 -1.791087 6.482826 11.714528 0.189239 -1.315432 16.372460 0.199569 -1.350085 16.816604 -0.000000 0.000000 0.000000 21.811249 8.375901 -8.032197 40.215549 13.301203 -8.783375 -40.003820 17.257173 -18.341163 -42.282392 -0.000010 0.000001 0.000001 -0.000000 0.000002 -87.362204 3.248652 -3.475934 50.661682 -13.145362 6.388183 13.597095 -24.037994 -16.787288 -4.793069 0.000010 0.000002 0.000000 -0.000002 -0.000000 
-1.638603 61.893486 0.086632 18.383873 16.407791 0.218900 11.294259 -13.863302 7.774753 2.940599 -3.723322 0.264024 2.932217 -3.939829 0.442708 -1.194535 2.137106 -4.346599 -8.536631 6.639678 -7.221422 -0.000002 0.000001 -0.000000 2.647869 -12.312531 4.436203 -39.583818 -73.289815 -12.145242 -0.000149 -93.281321 -0.000152 18.007118 -20.833923 5.353683 0.614968 5.226348 -14.494954 0.212942 1.566676 -15.479608 0.212814 1.566224 -15.474951 -0.000000 0.000000 0.000002 -14.376401 -24.771370 -3.355229 9.920185 43.708887 4.996009 -9.012750 -8.993956 12.231290 0.000001 0.000000 -0.000000 1.124621 0.945501 15.010637 -10.693320 -29.365760 42.701086 0.000005 9.864727 0.000021 7.808270 16.294577 -20.513817 -6.975359 9.008904 -3.363701 8.172531 -29.232551 -1.701830 -7.568540 8.340464 -10.032332 -0.000001 -0.000002 -0.000001 -1.701435 6.548621 11.129239 0.168299 -1.241930 15.433731 0.189338 -1.315781 16.376926 -0.000000 -0.000001 -0.000001 16.313398 9.238170 -5.974646 48.993169 12.897985 -9.042250 -44.449003 18.031942 -19.323532 -42.364358 -0.000024 -0.000007 0.000003 0.000002 0.000001 -89.224564 2.628593 -3.640524 46.436865 -13.388597 7.307964 16.742628 -25.592273 -17.942767 -4.382075 0.000001 -0.000001 -0.000000 -0.000002 -0.000000 
-2.059314 61.085274 -1.077789 17.398867 15.776960 -1.191777 13.677438 -12.802914 7.287789 3.160940 -3.465966 0.511099 3.148702 -3.680342 0.686668 -1.349951 1.974709 -4.178119 -9.752988 4.581003 -4.094308 0.000001 -0.000000 0.000000 2.317370 -13.104287 1.212693 -45.821130 -72.171850 -17.513981 -0.007061 -88.957354 -0.007035 17.769569 -21.222421 -3.054613 0.614963 5.226343 -14.494945 0.212945 1.566686 -15.479601 0.212817 1.566227 -15.474951 -0.000001 -0.000000 0.000001 -14.376402 -24.771358 -3.355227 9.920197 43.708887 4.995999 -9.012749 -8.993956 12.231294 -0.000000 -0.000001 -0.000002 1.017865 1.757020 14.735920 -13.401341 -27.627147 42.433988 0.000005 8.752941 0.000005 3.341673 14.915134 -21.356658 -7.609295 9.297314 -4.173545 8.144237 -29.015832 -1.691342 -7.568544 8.340461 -10.032336 0.000001 -0.000000 0.000000 -1.602233 6.619778 10.486675 0.146771 -1.161181 14.407511 0.178678 -1.278951 15.905900 0.000000 -0.000002 0.000001 14.839281 9.082021 -4.549980 54.317062 12.863663 -9.145674 -47.363062 19.831804 -19.914139 -42.658698 0.000000 0.000008 -0.000001 0.000000 0.000001 -88.559905 1.637513 -3.669658 44.132916 -13.580856 8.434691 17.529559 -26.385347 -19.085441 -3.852695 -0.000005 0.000003 0.000000 0.000000 -0.000000 
-2.246635 60.529221 -1.553082 15.672472 14.613473 -1.719717 16.150507 -11.859557 7.060668 3.311376 -3.246299 0.770232 3.294192 -3.458955 0.942033 -1.188791 1.765952 -3.804803 -10.525748 2.257997 -1.313203 -0.000001 0.000000 0.000000 2.060217 -14.677320 -0.383638 -53.393143 -68.460530 -23.948844 0.000083 -80.231541 0.000079 19.166067 -23.250159 -6.481342 0.614963 5.226346 -14.494949 0.212946 1.566683 -15.479601 0.212815 1.566223 -15.474960 -0.000001 -0.000000 -0.000000 -14.376402 -24.771358 -3.355228 9.920184 43.708877 4.996010 -9.012749 -8.993954 12.231293 -0.000000 -0.000000 -0.000000 0.846291 3.395655 13.856326 -18.057301 -27.169120 39.252124 -0.000006 8.942661 -0.000012 3.589803 14.178225 -24.232446 -8.290290 9.616353 -5.044435 8.118296 -28.792710 -1.679519 -7.568544 8.340462 -10.032336 0.000000 -0.000001 0.000000 -1.494334 6.695284 9.793306 0.125248 -1.073931 13.303909 0.167716 -1.239835 15.407046 0.000001 -0.000001 -0.000001 16.129483 8.713119 -4.627369 55.958930 13.177315 -9.095232 -49.050413 21.809177 -19.921551 -42.617512 -0.000001 -0.000002 0.000001 -0.000001 -0.000001 -87.357341 0.455260 -3.536900 43.182068 -13.747732 8.869459 17.300094 -25.916620 -19.910401 -3.293497 -0.000002 -0.000005 0.000000 -0.000002 -0.000000 
-2.235998 60.216560 -1.245258 15.035212 13.312549 -1.889347 17.219855 -11.198265 7.140418 3.298797 -3.075850 0.985302 3.276950 -3.274427 1.148332 -1.115633 1.408484 -2.824060 -11.207859 0.035262 1.214246 0.000002 -0.000000 -0.000000 2.309715 -15.853677 2.317378 -62.566247 -63.907539 -31.303764 0.000016 -67.284323 0.000014 28.115478 -26.665132 4.700985 0.614965 5.226346 -14.494952 0.212942 1.566683 -15.479609 0.212817 1.566223 -15.474950 -0.000000 -0.000001 -0.000003 -14.376394 -24.771348 -3.355227 9.920154 43.708867 4.996038 -9.012751 -8.993957 12.231291 -0.000000 0.000000 0.000000 0.775150 4.078026 13.787581 -24.775405 -26.020973 33.598787 -0.000002 12.598269 0.000011 3.208983 12.914320 -27.573841 -9.003757 9.960868 -5.956424 8.092079 -28.564362 -1.666113 -7.568541 8.340465 -10.032336 0.000000 0.000002 0.000000 -1.379849 6.773295 9.063836 0.104467 -0.981917 12.145532 0.156679 -1.199080 14.888537 -0.000000 -0.000001 0.000001 17.448833 8.556652 -5.170624 55.639705 13.476475 -9.021155 -48.867688 23.289142 -20.415384 -43.291317 -0.000007 -0.000007 -0.000000 0.000000 -0.000001 -87.269832 -0.620696 -3.494307 42.976582 -13.847834 8.757587 16.168489 -24.729639 -20.670719 -2.818602 -0.000002 -0.000009 -0.000000 -0.000000 -0.000001 
-1.963430 60.322906 -0.345850 15.176545 12.059704 -1.818998 17.566920 -10.955087 8.268469 3.190810 -3.072668 1.327514 3.157724 -3.249771 1.483044 -1.277763 1.123193 -1.906785 -12.003233 -1.362506 3.522034 0.000003 -0.000001 -0.000000 2.861005 -15.742310 6.253539 -68.199193 -60.716024 -34.748495 -0.000011 -53.748633 -0.000015 36.063399 -25.195898 20.218354 0.614970 5.226348 -14.494949 0.212947 1.566675 -15.479594 0.212826 1.566219 -15.474956 -0.000000 -0.000001 0.000001 -14.376397 -24.771356 -3.355231 9.920177 43.708863 4.996026 -9.012751 -8.993956 12.231293 -0.000001 0.000000 0.000002 0.762828 3.622399 12.155624 -31.542005 -23.293966 29.399047 -0.000001 18.748907 0.000004 3.605793 13.355190 -29.591945 -9.739314 10.326665 -6.895177 8.065292 -28.331001 -1.651971 -7.568541 8.340464 -10.032336 0.000000 -0.000002 -0.000001 -1.260344 6.852474 8.308852 0.084953 -0.886413 10.948633 0.145735 -1.157133 14.356154 0.000000 -0.000000 0.000001 18.090693 8.513354 -5.361600 55.095752 13.764803 -8.991294 -45.343836 24.838552 -22.983158 -46.788715 -0.000026 -0.000013 0.000001 -0.000000 0.000001 -87.565224 -1.224880 -4.017114 42.848113 -13.824373 8.778859 14.363099 -23.349661 -21.350239 -2.469414 -0.000001 0.000002 -0.000001 0.000001 -0.000000 
-1.485203 61.133308 1.151052 15.918456 10.617131 -1.280984 17.579314 -11.914427 10.643217 2.971932 -3.473969 1.750032 2.917682 -3.621561 1.903019 -1.628997 1.098812 -1.325014 -12.056262 -0.620168 5.396110 0.000000 0.000001 -0.000000 3.177073 -14.309245 9.358211 -68.269407 -56.733959 -33.606921 -0.000001 -43.556127 0.000001 34.525472 -22.380254 28.522675 0.614970 5.226346 -14.494949 0.212941 1.566680 -15.479609 0.212816 1.566231 -15.474958 -0.000000 -0.000000 0.000000 -14.376402 -24.771365 -3.355223 9.920180 43.708874 4.996015 -9.012750 -8.993955 12.231293 0.000002 -0.000003 -0.000003 0.671328 4.255732 9.992043 -36.628925 -18.393858 26.740112 0.000002 26.028186 -0.000001 7.750771 16.449443 -31.302361 -10.485739 10.708581 -7.845378 8.037999 -28.092956 -1.637542 -7.568541 8.340462 -10.032337 0.000000 -0.000001 0.000001 -1.137595 6.931453 7.539965 0.067151 -0.788853 9.731006 0.135034 -1.114500 13.816356 0.000001 0.000000 0.000001 19.081831 8.448741 -6.122764 51.575250 13.500399 -9.033157 -40.137487 24.800904 -24.804701 -49.720424 0.000013 0.000008 0.000000 0.000002 0.000000 -87.346850 -0.928265 -5.106877 40.778838 -13.688403 8.917404 12.547495 -22.062208 -21.813654 -2.515656 0.000001 -0.000002 -0.000000 -0.000001 -0.000000 
-0.811312 62.700684 3.544867 16.330504 8.726135 0.189234 17.577521 -12.743953 13.206096 2.771269 -3.875271 2.004034 2.701393 -3.984504 2.149716 -1.720418 0.995728 -0.470546 -11.783829 0.615866 5.754651 -0.000000 0.000001 0.000000 3.450751 -13.837855 11.380538 -65.577391 -50.925709 -30.786108 0.000003 -36.655682 0.000000 30.061285 -19.648543 33.175605 0.614960 5.226346 -14.494956 0.212951 1.566678 -15.479601 0.212815 1.566223 -15.474955 0.000000 -0.000002 0.000000 -14.376397 -24.771366 -3.355226 9.920197 43.708870 4.995997 -9.012747 -8.993957 12.231291 0.000002 -0.000001 -0.000002 0.754011 6.213221 10.654596 -41.333463 -11.391770 22.970582 -0.000005 34.765953 -0.000011 13.199175 14.776735 -32.437880 -11.231806 11.100870 -8.791937 8.010207 -27.850552 -1.622736 -7.568539 8.340462 -10.032336 -0.000001 0.000000 -0.000000 -1.013467 7.009028 6.768877 0.051390 -0.690713 8.510584 0.124720 -1.071688 13.275555 0.000000 -0.000002 -0.000001 20.268327 8.158477 -6.358012 46.835649 11.246476 -9.484890 -31.264064 20.589848 -27.142169 -51.413983 -0.000025 -0.000005 0.000001 -0.000001 0.000000 -85.836770 0.182507 -6.242326 36.548202 -13.459897 8.154034 10.513965 -21.264020 -22.306074 -2.976642 -0.000006 0.000000 0.000000 -0.000002 0.000000 
-0.065347 64.604889 6.859718 15.923469 5.989766 2.805236 17.829230 -12.087415 15.271895 2.712542 -3.875221 2.239590 2.634183 -3.953280 2.373831 -1.605538 0.787562 0.024101 -11.854292 0.629544 4.407518 -0.000001 -0.000002 -0.000000 3.782386 -15.166507 11.226580 -61.930172 -45.930635 -27.290562 -0.000004 -30.301277 -0.000001 24.731622 -16.460698 36.142964 0.614966 5.226354 -14.494952 0.212954 1.566683 -15.479598 0.212815 1.566225 -15.474953 0.000001 -0.000001 -0.000001 -14.376399 -24.771351 -3.355234 9.920180 43.708887 4.996020 -9.012748 -8.993952 12.231294 -0.000000 0.000004 -0.000000 1.460551 7.722770 9.856991 -44.731472 -4.175545 21.325862 0.000005 44.577896 -0.000017 16.395645 13.575929 -32.522622 -11.966686 11.497354 -9.720362 7.981873 -27.604201 -1.607584 -7.568542 8.340463 -10.032337 -0.000000 0.000000 0.000001 -0.889827 7.083880 6.007118 0.037888 -0.593452 7.305002 0.114893 -1.029199 12.740049 0.000000 0.000001 -0.000002 19.920397 9.075036 -7.043781 44.817960 9.401577 -9.994697 -18.849659 9.674605 -23.614045 -53.974945 0.108408 -2.345703 0.000000 -0.000001 0.000000 -83.618154 1.046307 -7.146675 34.144372 -13.262566 6.855892 7.587653 -21.352671 -23.071730 -2.943157 -0.000016 -0.000009 -0.000001 -0.000002 0.000001 
